<mxfile host="Electron" modified="2024-03-12T18:41:23.626Z" agent="Mozilla/5.0 (X11; Linux x86_64) AppleWebKit/537.36 (KHTML, like Gecko) draw.io/22.0.3 Chrome/118.0.5993.159 Electron/27.3.2 Safari/537.36" etag="UHhEKwExsVMpvw4tCymf" version="22.0.3" type="device">
  <diagram name="Page-1" id="Gz0j2GIneWh-27HYoYAU">
    <mxGraphModel dx="1434" dy="849" grid="1" gridSize="10" guides="1" tooltips="1" connect="1" arrows="1" fold="1" page="1" pageScale="1" pageWidth="850" pageHeight="1100" math="0" shadow="0">
      <root>
        <mxCell id="0" />
        <mxCell id="1" parent="0" />
        <mxCell id="sRzeSl0RgkKadgPWwKVA-5" style="edgeStyle=orthogonalEdgeStyle;rounded=0;orthogonalLoop=1;jettySize=auto;html=1;entryX=0.75;entryY=1;entryDx=0;entryDy=0;" parent="1" source="sRzeSl0RgkKadgPWwKVA-1" target="sRzeSl0RgkKadgPWwKVA-3" edge="1">
          <mxGeometry relative="1" as="geometry" />
        </mxCell>
        <mxCell id="sRzeSl0RgkKadgPWwKVA-1" value="Local sensors" style="rounded=0;whiteSpace=wrap;html=1;fillColor=#d5e8d4;strokeColor=#82b366;fontStyle=1" parent="1" vertex="1">
          <mxGeometry x="280" y="320" width="120" height="60" as="geometry" />
        </mxCell>
        <mxCell id="sRzeSl0RgkKadgPWwKVA-6" style="edgeStyle=orthogonalEdgeStyle;rounded=0;orthogonalLoop=1;jettySize=auto;html=1;entryX=0.25;entryY=1;entryDx=0;entryDy=0;" parent="1" source="sRzeSl0RgkKadgPWwKVA-2" target="sRzeSl0RgkKadgPWwKVA-3" edge="1">
          <mxGeometry relative="1" as="geometry" />
        </mxCell>
        <mxCell id="sRzeSl0RgkKadgPWwKVA-2" value="Neighborhood data" style="rounded=0;whiteSpace=wrap;html=1;fillColor=#fff2cc;strokeColor=#d6b656;fontStyle=1" parent="1" vertex="1">
          <mxGeometry x="40" y="320" width="120" height="60" as="geometry" />
        </mxCell>
        <mxCell id="sRzeSl0RgkKadgPWwKVA-7" style="edgeStyle=orthogonalEdgeStyle;rounded=0;orthogonalLoop=1;jettySize=auto;html=1;entryX=0.5;entryY=1;entryDx=0;entryDy=0;" parent="1" source="sRzeSl0RgkKadgPWwKVA-3" target="sRzeSl0RgkKadgPWwKVA-4" edge="1">
          <mxGeometry relative="1" as="geometry" />
        </mxCell>
        <mxCell id="sRzeSl0RgkKadgPWwKVA-3" value="Aggregate expression" style="rounded=0;whiteSpace=wrap;html=1;fillColor=#ffe6cc;strokeColor=#d79b00;fontStyle=1" parent="1" vertex="1">
          <mxGeometry x="160" y="180" width="120" height="60" as="geometry" />
        </mxCell>
        <mxCell id="sRzeSl0RgkKadgPWwKVA-4" value="Result" style="rounded=0;whiteSpace=wrap;html=1;fillColor=#dae8fc;strokeColor=#6c8ebf;fontStyle=1" parent="1" vertex="1">
          <mxGeometry x="160" y="60" width="120" height="60" as="geometry" />
        </mxCell>
        <mxCell id="sRzeSl0RgkKadgPWwKVA-30" style="edgeStyle=orthogonalEdgeStyle;rounded=0;orthogonalLoop=1;jettySize=auto;html=1;" parent="1" source="sRzeSl0RgkKadgPWwKVA-9" target="sRzeSl0RgkKadgPWwKVA-22" edge="1">
          <mxGeometry relative="1" as="geometry">
            <Array as="points">
              <mxPoint x="720" y="380" />
              <mxPoint x="745" y="380" />
            </Array>
          </mxGeometry>
        </mxCell>
        <mxCell id="sRzeSl0RgkKadgPWwKVA-9" value="Local sensors" style="rounded=0;whiteSpace=wrap;html=1;fillColor=#d5e8d4;strokeColor=#82b366;fontStyle=1" parent="1" vertex="1">
          <mxGeometry x="660" y="400" width="120" height="60" as="geometry" />
        </mxCell>
        <mxCell id="sRzeSl0RgkKadgPWwKVA-34" style="edgeStyle=orthogonalEdgeStyle;rounded=0;orthogonalLoop=1;jettySize=auto;html=1;" parent="1" source="sRzeSl0RgkKadgPWwKVA-11" target="sRzeSl0RgkKadgPWwKVA-18" edge="1">
          <mxGeometry relative="1" as="geometry">
            <Array as="points">
              <mxPoint x="560" y="380" />
              <mxPoint x="665" y="380" />
            </Array>
          </mxGeometry>
        </mxCell>
        <mxCell id="sRzeSl0RgkKadgPWwKVA-11" value="Neighborhood data" style="rounded=0;whiteSpace=wrap;html=1;fillColor=#fff2cc;strokeColor=#d6b656;fontStyle=1" parent="1" vertex="1">
          <mxGeometry x="500" y="400" width="120" height="60" as="geometry" />
        </mxCell>
        <mxCell id="sRzeSl0RgkKadgPWwKVA-14" value="Result" style="rounded=0;whiteSpace=wrap;html=1;fillColor=#dae8fc;strokeColor=#6c8ebf;fontStyle=1" parent="1" vertex="1">
          <mxGeometry x="580" y="20" width="120" height="60" as="geometry" />
        </mxCell>
        <mxCell id="sRzeSl0RgkKadgPWwKVA-32" style="edgeStyle=orthogonalEdgeStyle;rounded=0;orthogonalLoop=1;jettySize=auto;html=1;entryX=0.5;entryY=1;entryDx=0;entryDy=0;" parent="1" source="sRzeSl0RgkKadgPWwKVA-15" target="sRzeSl0RgkKadgPWwKVA-14" edge="1">
          <mxGeometry relative="1" as="geometry" />
        </mxCell>
        <mxCell id="sRzeSl0RgkKadgPWwKVA-15" value="Aggregate expression" style="swimlane;whiteSpace=wrap;html=1;fillColor=#ffe6cc;strokeColor=#d79b00;" parent="1" vertex="1">
          <mxGeometry x="500" y="120" width="280" height="230" as="geometry" />
        </mxCell>
        <mxCell id="sRzeSl0RgkKadgPWwKVA-16" value="" style="ellipse;whiteSpace=wrap;html=1;aspect=fixed;fillColor=#ffe6cc;strokeColor=#d79b00;" parent="sRzeSl0RgkKadgPWwKVA-15" vertex="1">
          <mxGeometry x="15" y="170" width="40" height="40" as="geometry" />
        </mxCell>
        <mxCell id="sRzeSl0RgkKadgPWwKVA-17" value="" style="ellipse;whiteSpace=wrap;html=1;aspect=fixed;fillColor=#ffe6cc;strokeColor=#d79b00;" parent="sRzeSl0RgkKadgPWwKVA-15" vertex="1">
          <mxGeometry x="95" y="170" width="40" height="40" as="geometry" />
        </mxCell>
        <mxCell id="sRzeSl0RgkKadgPWwKVA-18" value="" style="ellipse;whiteSpace=wrap;html=1;aspect=fixed;fillColor=#ffe6cc;strokeColor=#d79b00;" parent="sRzeSl0RgkKadgPWwKVA-15" vertex="1">
          <mxGeometry x="145" y="170" width="40" height="40" as="geometry" />
        </mxCell>
        <mxCell id="sRzeSl0RgkKadgPWwKVA-28" style="rounded=0;orthogonalLoop=1;jettySize=auto;html=1;startArrow=classic;startFill=1;endArrow=none;endFill=0;" parent="sRzeSl0RgkKadgPWwKVA-15" source="sRzeSl0RgkKadgPWwKVA-19" target="sRzeSl0RgkKadgPWwKVA-17" edge="1">
          <mxGeometry relative="1" as="geometry" />
        </mxCell>
        <mxCell id="sRzeSl0RgkKadgPWwKVA-29" style="rounded=0;orthogonalLoop=1;jettySize=auto;html=1;startArrow=classic;startFill=1;endArrow=none;endFill=0;" parent="sRzeSl0RgkKadgPWwKVA-15" source="sRzeSl0RgkKadgPWwKVA-19" target="sRzeSl0RgkKadgPWwKVA-16" edge="1">
          <mxGeometry relative="1" as="geometry" />
        </mxCell>
        <mxCell id="sRzeSl0RgkKadgPWwKVA-19" value="" style="ellipse;whiteSpace=wrap;html=1;aspect=fixed;fillColor=#ffe6cc;strokeColor=#d79b00;" parent="sRzeSl0RgkKadgPWwKVA-15" vertex="1">
          <mxGeometry x="55" y="110" width="40" height="40" as="geometry" />
        </mxCell>
        <mxCell id="sRzeSl0RgkKadgPWwKVA-25" style="rounded=0;orthogonalLoop=1;jettySize=auto;html=1;startArrow=classic;startFill=1;endArrow=none;endFill=0;" parent="sRzeSl0RgkKadgPWwKVA-15" source="sRzeSl0RgkKadgPWwKVA-20" target="sRzeSl0RgkKadgPWwKVA-22" edge="1">
          <mxGeometry relative="1" as="geometry" />
        </mxCell>
        <mxCell id="sRzeSl0RgkKadgPWwKVA-26" style="rounded=0;orthogonalLoop=1;jettySize=auto;html=1;startArrow=classic;startFill=1;endArrow=none;endFill=0;" parent="sRzeSl0RgkKadgPWwKVA-15" source="sRzeSl0RgkKadgPWwKVA-20" target="sRzeSl0RgkKadgPWwKVA-18" edge="1">
          <mxGeometry relative="1" as="geometry" />
        </mxCell>
        <mxCell id="sRzeSl0RgkKadgPWwKVA-20" value="" style="ellipse;whiteSpace=wrap;html=1;aspect=fixed;fillColor=#ffe6cc;strokeColor=#d79b00;" parent="sRzeSl0RgkKadgPWwKVA-15" vertex="1">
          <mxGeometry x="185" y="110" width="40" height="40" as="geometry" />
        </mxCell>
        <mxCell id="sRzeSl0RgkKadgPWwKVA-23" style="rounded=0;orthogonalLoop=1;jettySize=auto;html=1;startArrow=classic;startFill=1;endArrow=none;endFill=0;" parent="sRzeSl0RgkKadgPWwKVA-15" source="sRzeSl0RgkKadgPWwKVA-21" target="sRzeSl0RgkKadgPWwKVA-20" edge="1">
          <mxGeometry relative="1" as="geometry" />
        </mxCell>
        <mxCell id="sRzeSl0RgkKadgPWwKVA-27" style="rounded=0;orthogonalLoop=1;jettySize=auto;html=1;startArrow=classic;startFill=1;endArrow=none;endFill=0;" parent="sRzeSl0RgkKadgPWwKVA-15" source="sRzeSl0RgkKadgPWwKVA-21" target="sRzeSl0RgkKadgPWwKVA-19" edge="1">
          <mxGeometry relative="1" as="geometry" />
        </mxCell>
        <mxCell id="sRzeSl0RgkKadgPWwKVA-21" value="" style="ellipse;whiteSpace=wrap;html=1;aspect=fixed;fillColor=#ffe6cc;strokeColor=#d79b00;" parent="sRzeSl0RgkKadgPWwKVA-15" vertex="1">
          <mxGeometry x="115" y="40" width="40" height="40" as="geometry" />
        </mxCell>
        <mxCell id="sRzeSl0RgkKadgPWwKVA-22" value="" style="ellipse;whiteSpace=wrap;html=1;aspect=fixed;fillColor=#ffe6cc;strokeColor=#d79b00;" parent="sRzeSl0RgkKadgPWwKVA-15" vertex="1">
          <mxGeometry x="225" y="170" width="40" height="40" as="geometry" />
        </mxCell>
      </root>
    </mxGraphModel>
  </diagram>
</mxfile>
